{
	"asset":{
		"generator":"Khronos glTF Blender I/O v4.2.69",
		"version":"2.0"
	},
	"scene":0,
	"scenes":[
		{
			"name":"Scene",
			"nodes":[
				0
			]
		}
	],
	"nodes":[
		{
			"mesh":0,
			"name":"Cylinder",
			"translation":[
				-0.17665967345237732,
				1.024911880493164,
				0
			]
		}
	],
	"materials":[
		{
			"doubleSided":true,
			"name":"Material.001",
			"pbrMetallicRoughness":{
				"baseColorTexture":{
					"index":0
				},
				"metallicFactor":0,
				"roughnessFactor":0.5
			}
		}
	],
	"meshes":[
		{
			"name":"Cylinder.001",
			"primitives":[
				{
					"attributes":{
						"POSITION":0,
						"NORMAL":1,
						"TEXCOORD_0":2
					},
					"indices":3,
					"material":0
				}
			]
		}
	],
	"textures":[
		{
			"sampler":0,
			"source":0
		}
	],
	"images":[
		{
			"mimeType":"image/png",
			"name":"Apple2",
			"uri":"Apple2.png"
		}
	],
	"accessors":[
		{
			"bufferView":0,
			"componentType":5126,
			"count":20048,
			"max":[
				1.1416317224502563,
				0.23897160589694977,
				1.0095133781433105
			],
			"min":[
				-0.8102637529373169,
				-1.9827650785446167,
				-1.0366451740264893
			],
			"type":"VEC3"
		},
		{
			"bufferView":1,
			"componentType":5126,
			"count":20048,
			"type":"VEC3"
		},
		{
			"bufferView":2,
			"componentType":5126,
			"count":20048,
			"type":"VEC2"
		},
		{
			"bufferView":3,
			"componentType":5123,
			"count":30072,
			"type":"SCALAR"
		}
	],
	"bufferViews":[
		{
			"buffer":0,
			"byteLength":240576,
			"byteOffset":0,
			"target":34962
		},
		{
			"buffer":0,
			"byteLength":240576,
			"byteOffset":240576,
			"target":34962
		},
		{
			"buffer":0,
			"byteLength":160384,
			"byteOffset":481152,
			"target":34962
		},
		{
			"buffer":0,
			"byteLength":60144,
			"byteOffset":641536,
			"target":34963
		}
	],
	"samplers":[
		{
			"magFilter":9729,
			"minFilter":9987
		}
	],
	"buffers":[
		{
			"byteLength":701680,
			"uri":"Apple.bin"
		}
	]
}
